<svg id="Layer_1" data-name="Layer 1" xmlns="http://www.w3.org/2000/svg" viewBox="0 0 264.91 61.68"><defs><style>.cls-1{fill:#ffffff;}</style></defs><path class="cls-1" d="M61.63.06H32.08V29.62H61.63Zm-19.94,5A2.14,2.14,0,1,1,39.54,7.2,2.14,2.14,0,0,1,41.69,5.07Zm12.6,19.34H50V18.32l4.29-3.94Zm0-13.5-4.46,4.23-5,4.49-5.3,4.78V11.71h4.29V15L54.28,5.08h0Z"/><path class="cls-1" d="M29.55.06H0V29.62H29.55ZM9.18,24.38H5L11.1,12.06l2.12,4.23Zm10.91,0L12.51,9.21,14.59,5l9.67,19.34Z"/><path class="cls-1" d="M61.63,32.15H32.08V61.68H61.63ZM37.28,56.7l6.16-12.32,2.12,4.23L41.51,56.7Zm9.65-1a2.14,2.14,0,1,1,2.14-2.14A2.13,2.13,0,0,1,46.93,55.66Zm5.49,1L44.84,41.53l2.09-4.17L56.6,56.7Z"/><path class="cls-1" d="M29.55,32.15H0V61.68H29.55ZM11.77,56.69H7.42V44h4.35Zm-2.17-15a2.18,2.18,0,1,1,2.17-2.17A2.18,2.18,0,0,1,9.6,41.72Zm12.16,0H14V37.37h7.75Z"/><path class="cls-1" d="M102.37,9c-1.86,0-2.4,2.48-2.4,5.61s.54,5.69,2.4,5.69,2.4-2.54,2.4-5.69S104.23,9,102.37,9Z"/><path class="cls-1" d="M74,0V29.66h100.1V0ZM92.47,24.24H79.12a12.31,12.31,0,0,1-.21-2.08c0-7.12,8.33-8.39,8.33-11.16a1.91,1.91,0,0,0-2.08-1.92,3.49,3.49,0,0,0-2.86,2.05L78.8,8.78a7.39,7.39,0,0,1,6.79-4.15c3.16,0,6.59,1.81,6.59,5.91,0,6-7.8,7.17-8,9.65h8.33Zm9.9.32c-5.47,0-7.25-4.47-7.25-10s1.78-9.93,7.25-9.93,7.26,4.4,7.26,9.93S107.85,24.56,102.37,24.56Zm32.56-.32h-4.72V9h-3.75v2.35c0,9.49-2.91,13.1-8.33,13.1V20.17c2.29-.3,3.85-2,3.85-8.88V5h13Zm16.51,0H139V5h12.08V9H143.7v3.51h5.88v4H143.7v3.64h7.74ZM169.27,9h-5.85V24.24H158.7V9h-5.86V5h16.43Z"/><path class="cls-1" d="M75.74,37.39h5.17l2.83,8.22c.44,1.25,1,3.21,1,3.21h0s.55-2,1-3.21l2.83-8.22h5.17l1.58,19.45H90.57L90,48.08a28.55,28.55,0,0,1,0-3.26h0s-.66,2-1.09,3.26l-2,5.63H82.71l-2-5.63c-.44-1.22-1.09-3.26-1.09-3.26h-.06a28.55,28.55,0,0,1,0,3.26l-.59,8.76H74.14Z"/><path class="cls-1" d="M98.68,37.39h12.19v4.08h-7.43V45h5.93v4.08h-5.93v3.67h7.81v4.08H98.68Z"/><path class="cls-1" d="M114.35,37.39h4.76v7.78h7.07V37.39h4.76V56.84h-4.76V49.22h-7.07v7.62h-4.76Z"/><path class="cls-1" d="M136.93,50.58c.54-.89.73-1.16.73-1.16v-.06a6.27,6.27,0,0,1-3.12-5.77,5.75,5.75,0,0,1,3.59-5.74,10.18,10.18,0,0,1,3.78-.46h6.77V56.84h-4.76V50.29h-1.74l-3.67,6.55H133.2Zm7-4.24V41.47h-1.6A3.61,3.61,0,0,0,140,42a2.3,2.3,0,0,0-.65,1.82,2.22,2.22,0,0,0,2.47,2.5Z"/><path class="cls-1" d="M152.76,37.39H165v4.08h-7.42V45h5.93v4.08h-5.93v3.67h7.8v4.08H152.76Z"/><path class="cls-1" d="M169.28,37.39h5.17l2.83,8.22c.43,1.25,1,3.21,1,3.21h.05s.54-2,1-3.21l2.83-8.22h5.17l1.58,19.45h-4.76l-.6-8.76a28.55,28.55,0,0,1,0-3.26h-.06s-.65,2-1.09,3.26l-2,5.63h-4.08l-2-5.63c-.43-1.22-1.09-3.26-1.09-3.26h-.05a28.55,28.55,0,0,1,0,3.26l-.6,8.76h-4.79Z"/><path class="cls-1" d="M199.86,37.39H205l2.83,8.22c.43,1.25,1,3.21,1,3.21h0s.54-2,1-3.21l2.83-8.22h5.17l1.58,19.45h-4.76l-.6-8.76a28.55,28.55,0,0,1,0-3.26H214s-.65,2-1.09,3.26l-2,5.63h-4.08l-2-5.63c-.43-1.22-1.09-3.26-1.09-3.26h-.05a28.55,28.55,0,0,1,0,3.26l-.6,8.76h-4.79Z"/><path class="cls-1" d="M222.79,37.39h4.76v9.09c0,1.22-.21,3.32-.21,3.32h0A35.14,35.14,0,0,1,229,46.48l5.39-9.09h4.82V56.84h-4.77V47.78c0-1.22.22-3.32.22-3.32h-.05A35.14,35.14,0,0,1,233,47.78l-5.42,9.06h-4.79Z"/><path class="cls-1" d="M243.31,37.39h8.08c3.78,0,6.34,2.78,6.34,6.69s-2.56,6.75-6.34,6.75h-3.32v6h-4.76Zm7.1,9.36a2.37,2.37,0,0,0,2.47-2.67,2.3,2.3,0,0,0-2.39-2.61h-2.42v5.28Z"/><path class="cls-1" d="M260,37.39h4.9l-.44,13.44h-4Zm.3,15.37h4.3v4.08h-4.3Z"/></svg>